{"title":"The.Conjuring.2.2016.ENGLISH.CAMRip","uid":14890221,"size":659700246,"categoryP":"video","categoryS":"movies","magnet":"?xt=urn:btih:f2320d865ded31342ed19e61a489311ca269e77a&amp;dn=The.Conjuring.2.2016.ENGLISH.CAMRip&amp;tr=udp%3A%2F%2Ftracker.leechers-paradise.org%3A6969&amp;tr=udp%3A%2F%2Fzer0day.ch%3A1337&amp;tr=udp%3A%2F%2Fopen.demonii.com%3A1337&amp;tr=udp%3A%2F%2Ftracker.coppersurfer.tk%3A6969&amp;tr=udp%3A%2F%2Fexodus.desync.com%3A6969","seeders":16,"leechers":0,"uploader":"makintos13","files":1,"time":1465760034,"description":"screens:\r\n \nhttps://imgmak.com/Tg0\r\n \nhttps://imgmak.com/TgA\r\n \nhttps://imgmak.com/TgD\r\n \nhttps://imgmak.com/TgO\r\n \nhttps://imgmak.com/TgP\r\n \nhttps://imgmak.com/TgY\r\n\r\n\r\n\r\nFile size                   : 629 MiB\r\nDuration                    : 2h 9mn\r\nOverall bit rate            : 680 Kbps\r\nWriting application         : Lavf56.40.101\r\n\r\nVideo\r\nID                          : 1\r\nFormat                      : AVC\r\nFormat/Info                 : Advanced Video Codec\r\nFormat profile              :   \r\nFormat settings, CABAC      : Yes\r\nFormat settings, ReFrames   : 4 frames\r\nCodec ID                    : avc1\r\nCodec ID/Info               : Advanced Video Coding\r\nDuration                    : 2h 9mn\r\nBit rate                    : 547 Kbps\r\nWidth                       : 720 pixels\r\nHeight                      : 480 pixels\r\nDisplay aspect ratio        : 3:2\r\nFrame rate mode             : Constant\r\nFrame rate                  : 25.000 fps\r\nColor space                 : YUV\r\nChroma subsampling          : 4:2:0\r\nBit depth                   : 8 bits\r\nScan type                   : Progressive\r\nBits/(Pixel*Frame)          : 0.063\r\nStream size                 : 506 MiB (80%)\r\n\r\nAudio\r\nID                          : 2\r\nFormat                      : AAC\r\nFormat/Info                 : Advanced Audio Codec\r\nFormat profile              : LC\r\nCodec ID                    : 40\r\nDuration                    : 2h 9mn\r\nBit rate mode               : Constant\r\nBit rate                    : 128 Kbps\r\nChannel(s)                  : 2 channels\r\nChannel positions           : Front: L R\r\nSampling rate               : 48.0 KHz\r\nFrame rate                  : 46.875 fps (1024 spf)\r\nCompression mode            : Lossy\r\nStream size                 : 118 MiB (19%)\r\nDefault                     : Yes\r\nAlternate group             : 1","torrent":{"xt":"urn:btih:f2320d865ded31342ed19e61a489311ca269e77a","amp;dn":"The.Conjuring.2.2016.ENGLISH.CAMRip","amp;tr":["udp%3A%2F%2Ftracker.leechers-paradise.org%3A6969","udp%3A%2F%2Fzer0day.ch%3A1337","udp%3A%2F%2Fopen.demonii.com%3A1337","udp%3A%2F%2Ftracker.coppersurfer.tk%3A6969","udp%3A%2F%2Fexodus.desync.com%3A6969"],"infoHash":"f2320d865ded31342ed19e61a489311ca269e77a","infoHashBuffer":{"type":"Buffer","data":[242,50,13,134,93,237,49,52,46,209,158,97,164,137,49,28,162,105,231,122]},"announce":[],"urlList":[]}}